<svg xmlns="http://www.w3.org/2000/svg" width="85.156" height="95" viewBox="0 0 85.156 95">
  <g id="connection-svgrepo-com" transform="translate(-26.527)">
    <path id="Path_32" data-name="Path 32" d="M317.222,288.783l-13.55-7.823a3.659,3.659,0,0,1,3.659-6.337l13.55,7.823a3.659,3.659,0,0,1-3.659,6.337Z" transform="translate(-224.232 -223.267)" fill="#22313f"/>
    <path id="Path_33" data-name="Path 33" d="M375.113,317.27h0a10.733,10.733,0,1,1,14.661-3.928A10.727,10.727,0,0,1,375.113,317.27Z" transform="translate(-279.533 -242.092)" fill="#ff7876"/>
    <path id="Path_34" data-name="Path 34" d="M302.332,169.576a3.658,3.658,0,0,1,1.339-5l13.55-7.823a3.659,3.659,0,0,1,3.659,6.337l-13.55,7.823A3.659,3.659,0,0,1,302.332,169.576Z" transform="translate(-224.23 -127.27)" fill="#22313f"/>
    <path id="Path_35" data-name="Path 35" d="M371.184,115.161a10.733,10.733,0,1,1,14.661,3.928A10.727,10.727,0,0,1,371.184,115.161Z" transform="translate(-279.533 -80.678)" fill="#ffd155"/>
    <path id="Path_36" data-name="Path 36" d="M239.94,99.215a3.659,3.659,0,0,1-3.659-3.659V79.911a3.659,3.659,0,0,1,7.318,0V95.556A3.659,3.659,0,0,1,239.94,99.215Z" transform="translate(-170.835 -62.104)" fill="#2c3e50"/>
    <path id="Path_37" data-name="Path 37" d="M256,76.251V99.214a3.659,3.659,0,0,0,3.659-3.659V79.91A3.659,3.659,0,0,0,256,76.251Z" transform="translate(-186.895 -62.103)" fill="#22313f"/>
    <path id="Path_38" data-name="Path 38" d="M239.94,334.952a3.659,3.659,0,0,1-3.659-3.659V315.648a3.659,3.659,0,1,1,7.318,0v15.646A3.659,3.659,0,0,1,239.94,334.952Z" transform="translate(-170.835 -254.1)" fill="#2c3e50"/>
    <path id="Path_39" data-name="Path 39" d="M256,311.989v22.963a3.659,3.659,0,0,0,3.659-3.659V315.648A3.659,3.659,0,0,0,256,311.989Z" transform="translate(-186.895 -254.1)" fill="#22313f"/>
    <g id="Group_4" data-name="Group 4" transform="translate(39.731 28.994)">
      <path id="Path_40" data-name="Path 40" d="M113.067,170.913l-13.55-7.823a3.659,3.659,0,0,1,3.659-6.337l13.55,7.823a3.659,3.659,0,0,1-3.659,6.337Z" transform="translate(-97.688 -156.262)" fill="#2c3e50"/>
      <path id="Path_41" data-name="Path 41" d="M98.178,287.445a3.658,3.658,0,0,1,1.339-5l13.55-7.823a3.659,3.659,0,0,1,3.659,6.337l-13.55,7.823A3.659,3.659,0,0,1,98.178,287.445Z" transform="translate(-97.687 -252.262)" fill="#2c3e50"/>
    </g>
    <path id="Path_42" data-name="Path 42" d="M178.278,195.985a17.706,17.706,0,1,1,17.706-17.706A17.726,17.726,0,0,1,178.278,195.985Z" transform="translate(-109.173 -130.778)" fill="#51b3da"/>
    <path id="Path_43" data-name="Path 43" d="M208.889,21.466a10.733,10.733,0,1,1,10.733-10.733A10.745,10.745,0,0,1,208.889,21.466Z" transform="translate(-139.784)" fill="#ff9392"/>
    <path id="Path_44" data-name="Path 44" d="M208.889,417.778a10.733,10.733,0,1,1,10.733-10.733A10.745,10.745,0,0,1,208.889,417.778Z" transform="translate(-139.784 -322.778)" fill="#c7e9f4"/>
    <path id="Path_45" data-name="Path 45" d="M256,396.31v21.466a10.733,10.733,0,0,0,0-21.466Z" transform="translate(-186.895 -322.776)" fill="#80d0e1"/>
    <path id="Path_46" data-name="Path 46" d="M31.9,119.09A10.733,10.733,0,0,1,42.63,100.5h0A10.733,10.733,0,1,1,31.9,119.09Z" transform="translate(0 -80.678)" fill="#c7e9f4"/>
    <path id="Path_47" data-name="Path 47" d="M27.97,313.341a10.733,10.733,0,1,1,14.661,3.929A10.727,10.727,0,0,1,27.97,313.341Z" transform="translate(-0.001 -242.092)" fill="#ffda79"/>
    <path id="Path_48" data-name="Path 48" d="M256,160.573v35.413a17.706,17.706,0,1,0,0-35.413Z" transform="translate(-186.895 -130.779)" fill="#238cc5"/>
    <path id="Path_49" data-name="Path 49" d="M256,0V21.466A10.733,10.733,0,0,0,256,0Z" transform="translate(-186.895)" fill="#ff7876"/>
  </g>
</svg>
