<svg xmlns="http://www.w3.org/2000/svg" width="5.623" height="20.462" viewBox="0 0 5.623 20.462">
  <g id="info" transform="translate(-14.627 -7.875)">
    <path id="Path_52" data-name="Path 52" d="M20.093,14.823l-5.152.646-.184.855,1.012.187c.661.158.792.4.648,1.055l-1.66,7.8c-.436,2.018.236,2.968,1.818,2.968a4.66,4.66,0,0,0,3.3-1.345l.2-.936a2.492,2.492,0,0,1-1.544.553c-.619,0-.844-.434-.684-1.2Z" fill="#05909a"/>
    <path id="Path_53" data-name="Path 53" d="M20.25,10.125A2.25,2.25,0,1,1,18,7.875,2.25,2.25,0,0,1,20.25,10.125Z" fill="#05909a"/>
  </g>
</svg>
