<svg id="push-pin-svgrepo-com" xmlns="http://www.w3.org/2000/svg" width="59" height="59" viewBox="0 0 59 59">
  <path id="Path_27" data-name="Path 27" d="M29.5,0A29.5,29.5,0,1,1,0,29.5,29.5,29.5,0,0,1,29.5,0Z" fill="#eee"/>
  <path id="Path_18" data-name="Path 18" d="M171.371,200.135a29.511,29.511,0,0,0,23.936-27.162l-12.195-12.388L176.9,160.1l-20.474,20.355.636.636-2.94,1.8Z" transform="translate(-136.365 -141.65)" fill="#dcdcdc"/>
  <path id="Path_19" data-name="Path 19" d="M151.536,235.9h0a1.152,1.152,0,0,1,0-1.629l14.257-14.257,1.629,1.629L153.165,235.9A1.152,1.152,0,0,1,151.536,235.9Z" transform="translate(-133.775 -194.662)" fill="#fff"/>
  <path id="Path_20" data-name="Path 20" d="M153.61,241.575c.021.024.037.05.059.073h0a1.152,1.152,0,0,0,1.629,0l14.257-14.257-.881-.881Z" transform="translate(-135.909 -200.408)" fill="#d0d1d3"/>
  <path id="Path_21" data-name="Path 21" d="M225.044,153.862l-9.271-9.271,13.906-9.271,4.635,4.636Z" transform="translate(-190.909 -119.726)" fill="#e09112"/>
  <g id="Group_3" data-name="Group 3" transform="translate(29.434 11.685)">
    <path id="Path_22" data-name="Path 22" d="M255.426,166.449l4.7,4.7,9.271-13.906-2.384-2.384Z" transform="translate(-255.426 -148.7)" fill="#ff5419"/>
    <path id="Path_23" data-name="Path 23" d="M309.836,113.34l-6.789-6.789a1.755,1.755,0,0,1,0-2.482l2.154-2.154a1.755,1.755,0,0,1,2.482,0l6.789,6.789a1.755,1.755,0,0,1,0,2.482l-2.154,2.154A1.754,1.754,0,0,1,309.836,113.34Z" transform="translate(-297.104 -101.401)" fill="#ff5419"/>
  </g>
  <path id="Path_24" data-name="Path 24" d="M340.513,134.746l-4.635,4.635,3.461,3.461a1.755,1.755,0,0,0,2.482,0l2.154-2.154a1.755,1.755,0,0,0,0-2.482Z" transform="translate(-297.173 -119.219)" fill="#c92f00"/>
  <path id="Path_25" data-name="Path 25" d="M210.773,200.458l-10.4-10.4a1.682,1.682,0,0,1,0-2.379l.711-.711a1.683,1.683,0,0,1,2.379,0l10.4,10.4a1.683,1.683,0,0,1,0,2.379l-.711.711A1.682,1.682,0,0,1,210.773,200.458Z" transform="translate(-176.844 -164.983)" fill="#ff5419"/>
  <path id="Path_26" data-name="Path 26" d="M251.812,235.313l-3.09,3.09,5.268,5.268a1.683,1.683,0,0,0,2.379,0l.711-.711a1.683,1.683,0,0,0,0-2.379Z" transform="translate(-220.061 -208.197)" fill="#c92f00"/>
</svg>
