<svg id="warning-svgrepo-com" xmlns="http://www.w3.org/2000/svg" width="59" height="59" viewBox="0 0 59 59">
  <circle id="Ellipse_1" data-name="Ellipse 1" cx="29.5" cy="29.5" r="29.5" transform="translate(0 0)" fill="#05909a"/>
  <path id="Path_29" data-name="Path 29" d="M107.363,100.174,87.122,67.552a1.293,1.293,0,0,0-2.2,0l-20.3,32.712a1.293,1.293,0,0,0,1.1,1.975h40.6a1.292,1.292,0,0,0,1.037-2.064Z" transform="translate(-56.413 -58.607)" fill="#edc92c"/>
  <path id="Path_30" data-name="Path 30" d="M222.042,163.19l-.42-6.279q-.118-1.836-.117-2.635a2.39,2.39,0,0,1,.57-1.7,1.957,1.957,0,0,1,1.5-.61,1.51,1.51,0,0,1,1.508.78,5.287,5.287,0,0,1,.38,2.248,17.309,17.309,0,0,1-.091,1.757l-.564,6.463a5.052,5.052,0,0,1-.394,1.771,1.031,1.031,0,0,1-1,.615.989.989,0,0,1-.983-.6A5.9,5.9,0,0,1,222.042,163.19Zm1.455,8.626a2.061,2.061,0,0,1-1.4-.517,1.814,1.814,0,0,1-.6-1.448,1.946,1.946,0,0,1,1.966-1.954,1.941,1.941,0,0,1,1.409.57,1.864,1.864,0,0,1,.584,1.384,1.828,1.828,0,0,1-.591,1.442A2.009,2.009,0,0,1,223.5,171.816Z" transform="translate(-193.93 -133.049)"/>
</svg>
